<svg width="405" height="833" viewBox="0 0 405 833" fill="none" xmlns="http://www.w3.org/2000/svg">
<g filter="url(#filter0_dddd_317_35)">
<mask id="mask0_317_35" style="mask-type:alpha" maskUnits="userSpaceOnUse" x="119" y="0" width="465" height="527">
<rect x="119" y="394.694" width="436.735" height="307.117" transform="rotate(-64.6539 119 394.694)" fill="#D9D9D9"/>
</mask>
<g mask="url(#mask0_317_35)">
<g clip-path="url(#clip0_317_35)">
<path d="M457.095 245.917C461.523 209.526 454.044 175.134 439.172 153.53C419.952 167.632 404.711 197.024 400.283 233.415C395.855 269.806 431.955 304.135 446.827 325.739C466.047 311.637 452.663 282.307 457.091 245.916L457.095 245.917Z" fill="#085727"/>
<path d="M471.826 368.411C471.826 368.411 419.458 318.623 427.221 235.93C427.221 235.93 432.287 298.173 456.951 339.822C459.536 344.188 476.197 364.047 482.667 368.188" fill="#6B2A00"/>
<path d="M391.142 215.538C400.331 251.848 397.246 285.18 385.04 305.255C363.819 289.703 344.629 259.386 335.439 223.075C326.25 186.765 329.335 153.433 341.541 133.358C362.762 148.91 381.952 179.227 391.142 215.538Z" fill="#074820"/>
<path d="M454.509 374.997C454.509 374.997 366.597 316.355 357.595 231.344C357.595 231.344 373.888 292.54 408.552 326.313C415.052 332.644 421.36 338.375 427.321 343.511C428.996 344.955 438.888 343.004 440.503 344.351C463.811 363.791 472.426 376.756 472.426 376.756" fill="#6B2A00"/>
<path d="M358.687 420.979C384.227 405.512 401.632 385.118 406.691 367.272C386.693 364.601 359.333 371.32 333.793 386.788C308.252 402.255 307.406 436.789 302.344 454.639C322.343 457.311 333.144 436.451 358.685 420.983L358.687 420.979Z" fill="#074820"/>
<path d="M402.893 252.54C401.245 222.934 391.291 196.813 377.715 182.024C365.757 196.287 358.692 222.059 360.346 251.663C361.994 281.269 392.541 302.782 406.117 317.571C418.075 303.309 404.545 282.148 402.897 252.542L402.893 252.54Z" fill="#0C7333"/>
<path d="M265.092 368.232C296.442 367.872 323.133 358.986 337.334 345.946C320.775 333.257 292.51 324.998 261.16 325.358C229.807 325.715 203.119 334.604 188.918 347.643C205.477 360.332 233.742 368.592 265.092 368.232Z" fill="#0D8039"/>
<path d="M288.898 320.915C324.668 333.21 358.572 335.956 379.948 329.938C366.227 311.856 337.428 293.053 301.659 280.758C265.889 268.463 231.985 265.717 210.609 271.735C224.329 289.817 253.128 308.62 288.898 320.915Z" fill="#074820"/>
<path d="M450.791 356.973C450.141 358.946 448.054 359.995 446.137 359.316C446.137 359.316 279.748 292.44 281.665 293.119L448.491 352.169C450.409 352.849 451.438 354.999 450.788 356.971L450.791 356.973Z" fill="#6B2A00"/>
<path d="M306.554 300.783C329 318.088 357.591 322.673 381.987 315.287C384.357 290.918 373.602 265.173 351.156 247.868C328.71 230.563 300.119 225.978 275.723 233.364C273.353 257.733 284.108 283.477 306.554 300.783Z" fill="#085727"/>
<path d="M451.062 367.608C449.781 369.25 447.406 369.622 445.757 368.433C445.757 368.433 305.526 258.052 307.175 259.241L450.396 362.479C452.045 363.667 452.341 365.961 451.058 367.606L451.062 367.608Z" fill="#6B2A00"/>
<path d="M446.826 349.874C446.79 351.982 445.136 353.548 443.131 353.382C443.131 353.382 239.066 343.15 241.071 343.316L443.256 345.751C445.259 345.922 446.859 347.765 446.823 349.873L446.826 349.874Z" fill="#6B2A00"/>
<path d="M440.086 358.167C440.086 358.167 380.848 299.592 376.411 253.529C376.411 253.529 399.135 320.611 454.693 360.145C510.251 399.679 440.082 358.165 440.082 358.165L440.086 358.167Z" fill="#6B2A00"/>
<path d="M324.683 396.689C351.802 383.604 370.951 364.449 377.321 346.486C357.081 341.364 328.691 345.136 301.572 358.221C274.453 371.306 255.305 390.461 248.935 408.424C269.174 413.546 297.565 409.774 324.683 396.689Z" fill="#0B6E31"/>
<path d="M455.259 353.517C455.259 353.517 375.004 329.295 317.753 367.686C317.753 367.686 363.861 346.138 402.116 350.18C409.289 350.94 415.993 351.89 422.151 352.929C423.881 353.222 427.608 360.368 429.249 360.674C452.941 365.082 465.287 363.721 465.287 363.721" fill="#6B2A00"/>
<path d="M446.137 359.316C446.137 359.316 379.58 355.021 345.423 399.757C345.423 399.757 416.36 348.165 467.655 368.08" fill="#6B2A00"/>
<path d="M433.299 260.747C437.586 231.79 432.902 204.735 422.337 188.007C407.569 199.692 395.371 223.395 391.09 252.349C386.803 281.306 412.924 307.551 423.491 324.276C438.259 312.59 429.018 289.701 433.305 260.745L433.299 260.747Z" fill="#074820"/>
<path d="M441.074 357.427C441.074 357.427 403.18 319.363 411.196 253.625C411.196 253.625 413.335 302.817 430.693 335.166C432.513 338.556 438.958 340.496 441.13 343.444C444.767 348.382 444.461 353.852 449.199 356.961" fill="#6B2A00"/>
</g>
</g>
</g>
<defs>
<filter id="filter0_dddd_317_35" x="0.6604" y="68.7666" width="622.852" height="763.4" filterUnits="userSpaceOnUse" color-interpolation-filters="sRGB">
<feFlood flood-opacity="0" result="BackgroundImageFix"/>
<feColorMatrix in="SourceAlpha" type="matrix" values="0 0 0 0 0 0 0 0 0 0 0 0 0 0 0 0 0 0 127 0" result="hardAlpha"/>
<feOffset dx="-4" dy="13"/>
<feGaussianBlur stdDeviation="15.5"/>
<feColorMatrix type="matrix" values="0 0 0 0 0 0 0 0 0 0 0 0 0 0 0 0 0 0 0.1 0"/>
<feBlend mode="normal" in2="BackgroundImageFix" result="effect1_dropShadow_317_35"/>
<feColorMatrix in="SourceAlpha" type="matrix" values="0 0 0 0 0 0 0 0 0 0 0 0 0 0 0 0 0 0 127 0" result="hardAlpha"/>
<feOffset dx="-16" dy="54"/>
<feGaussianBlur stdDeviation="28"/>
<feColorMatrix type="matrix" values="0 0 0 0 0 0 0 0 0 0 0 0 0 0 0 0 0 0 0.09 0"/>
<feBlend mode="normal" in2="effect1_dropShadow_317_35" result="effect2_dropShadow_317_35"/>
<feColorMatrix in="SourceAlpha" type="matrix" values="0 0 0 0 0 0 0 0 0 0 0 0 0 0 0 0 0 0 127 0" result="hardAlpha"/>
<feOffset dx="-37" dy="121"/>
<feGaussianBlur stdDeviation="38"/>
<feColorMatrix type="matrix" values="0 0 0 0 0 0 0 0 0 0 0 0 0 0 0 0 0 0 0.05 0"/>
<feBlend mode="normal" in2="effect2_dropShadow_317_35" result="effect3_dropShadow_317_35"/>
<feColorMatrix in="SourceAlpha" type="matrix" values="0 0 0 0 0 0 0 0 0 0 0 0 0 0 0 0 0 0 127 0" result="hardAlpha"/>
<feOffset dx="-66" dy="216"/>
<feGaussianBlur stdDeviation="45"/>
<feColorMatrix type="matrix" values="0 0 0 0 0 0 0 0 0 0 0 0 0 0 0 0 0 0 0.01 0"/>
<feBlend mode="normal" in2="effect3_dropShadow_317_35" result="effect4_dropShadow_317_35"/>
<feBlend mode="normal" in="SourceGraphic" in2="effect4_dropShadow_317_35" result="shape"/>
</filter>
<clipPath id="clip0_317_35">
<rect width="330.693" height="362.389" fill="white" transform="translate(156.66 385.626) rotate(-64.6539)"/>
</clipPath>
</defs>
</svg>
