<svg width="128" height="30" viewBox="0 0 128 30" fill="none" xmlns="http://www.w3.org/2000/svg">
<rect width="128" height="30" rx="8" fill="#534531"/>
<path d="M10.5195 10.4688V19H8.76172V10.4688H10.5195ZM15.6289 10.4688L12.248 14.6816L10.2969 16.7793L9.98047 15.1152L11.2988 13.3105L13.4727 10.4688H15.6289ZM13.6309 19L11.1172 15.0566L12.418 13.9668L15.7109 19H13.6309ZM17.8906 14.0137V19H16.2031V12.6602H17.7852L17.8906 14.0137ZM17.6445 15.6074H17.1875C17.1875 15.1387 17.248 14.7168 17.3691 14.3418C17.4902 13.9629 17.6602 13.6406 17.8789 13.375C18.0977 13.1055 18.3574 12.9004 18.6582 12.7598C18.9629 12.6152 19.3027 12.543 19.6777 12.543C19.9746 12.543 20.2461 12.5859 20.4922 12.6719C20.7383 12.7578 20.9492 12.8945 21.125 13.082C21.3047 13.2695 21.4414 13.5176 21.5352 13.8262C21.6328 14.1348 21.6816 14.5117 21.6816 14.957V19H19.9824V14.9512C19.9824 14.6699 19.9434 14.4512 19.8652 14.2949C19.7871 14.1387 19.6719 14.0293 19.5195 13.9668C19.3711 13.9004 19.1875 13.8672 18.9688 13.8672C18.7422 13.8672 18.5449 13.9121 18.377 14.002C18.2129 14.0918 18.0762 14.2168 17.9668 14.377C17.8613 14.5332 17.7812 14.7168 17.7266 14.9277C17.6719 15.1387 17.6445 15.3652 17.6445 15.6074ZM22.6953 15.8945V15.7715C22.6953 15.3066 22.7617 14.8789 22.8945 14.4883C23.0273 14.0938 23.2207 13.752 23.4746 13.4629C23.7285 13.1738 24.041 12.9492 24.4121 12.7891C24.7832 12.625 25.209 12.543 25.6895 12.543C26.1699 12.543 26.5977 12.625 26.9727 12.7891C27.3477 12.9492 27.6621 13.1738 27.916 13.4629C28.1738 13.752 28.3691 14.0938 28.502 14.4883C28.6348 14.8789 28.7012 15.3066 28.7012 15.7715V15.8945C28.7012 16.3555 28.6348 16.7832 28.502 17.1777C28.3691 17.5684 28.1738 17.9102 27.916 18.2031C27.6621 18.4922 27.3496 18.7168 26.9785 18.877C26.6074 19.0371 26.1816 19.1172 25.7012 19.1172C25.2207 19.1172 24.793 19.0371 24.418 18.877C24.0469 18.7168 23.7324 18.4922 23.4746 18.2031C23.2207 17.9102 23.0273 17.5684 22.8945 17.1777C22.7617 16.7832 22.6953 16.3555 22.6953 15.8945ZM24.3828 15.7715V15.8945C24.3828 16.1602 24.4062 16.4082 24.4531 16.6387C24.5 16.8691 24.5742 17.0723 24.6758 17.248C24.7812 17.4199 24.918 17.5547 25.0859 17.6523C25.2539 17.75 25.459 17.7988 25.7012 17.7988C25.9355 17.7988 26.1367 17.75 26.3047 17.6523C26.4727 17.5547 26.6074 17.4199 26.709 17.248C26.8105 17.0723 26.8848 16.8691 26.9316 16.6387C26.9824 16.4082 27.0078 16.1602 27.0078 15.8945V15.7715C27.0078 15.5137 26.9824 15.2715 26.9316 15.0449C26.8848 14.8145 26.8086 14.6113 26.7031 14.4355C26.6016 14.2559 26.4668 14.1152 26.2988 14.0137C26.1309 13.9121 25.9277 13.8613 25.6895 13.8613C25.4512 13.8613 25.248 13.9121 25.0801 14.0137C24.916 14.1152 24.7812 14.2559 24.6758 14.4355C24.5742 14.6113 24.5 14.8145 24.4531 15.0449C24.4062 15.2715 24.3828 15.5137 24.3828 15.7715ZM31.5488 17.3594L32.8672 12.6602H33.9395L33.5938 14.5059L32.2754 19H31.3789L31.5488 17.3594ZM30.8809 12.6602L31.8242 17.3535L31.9121 19H30.8574L29.252 12.6602H30.8809ZM35.1465 17.2773L36.0664 12.6602H37.7012L36.0957 19H35.0469L35.1465 17.2773ZM34.0859 12.6602L35.3984 17.3242L35.5801 19H34.6777L33.3594 14.5117L33.0254 12.6602H34.0859ZM43.2266 13.9727V19H41.5332V12.6602H43.1211L43.2266 13.9727ZM42.9922 15.6074H42.5234C42.5234 15.166 42.5762 14.7598 42.6816 14.3887C42.791 14.0137 42.9492 13.6895 43.1562 13.416C43.3672 13.1387 43.627 12.9238 43.9355 12.7715C44.2441 12.6191 44.6016 12.543 45.0078 12.543C45.2891 12.543 45.5469 12.5859 45.7812 12.6719C46.0156 12.7539 46.2168 12.8848 46.3848 13.0645C46.5566 13.2402 46.6895 13.4707 46.7832 13.7559C46.877 14.0371 46.9238 14.375 46.9238 14.7695V19H45.2363V14.957C45.2363 14.668 45.1973 14.4453 45.1191 14.2891C45.041 14.1328 44.9297 14.0234 44.7852 13.9609C44.6445 13.8984 44.4746 13.8672 44.2754 13.8672C44.0566 13.8672 43.8652 13.9121 43.7012 14.002C43.541 14.0918 43.4082 14.2168 43.3027 14.377C43.1973 14.5332 43.1191 14.7168 43.0684 14.9277C43.0176 15.1387 42.9922 15.3652 42.9922 15.6074ZM46.7656 15.4141L46.1621 15.4902C46.1621 15.0762 46.2129 14.6914 46.3145 14.3359C46.4199 13.9805 46.5742 13.668 46.7773 13.3984C46.9844 13.1289 47.2402 12.9199 47.5449 12.7715C47.8496 12.6191 48.2012 12.543 48.5996 12.543C48.9043 12.543 49.1816 12.5879 49.4316 12.6777C49.6816 12.7637 49.8945 12.9023 50.0703 13.0938C50.25 13.2812 50.3867 13.5273 50.4805 13.832C50.5781 14.1367 50.627 14.5098 50.627 14.9512V19H48.9336V14.9512C48.9336 14.6582 48.8945 14.4355 48.8164 14.2832C48.7422 14.127 48.6328 14.0195 48.4883 13.9609C48.3477 13.8984 48.1797 13.8672 47.9844 13.8672C47.7812 13.8672 47.6035 13.9082 47.4512 13.9902C47.2988 14.0684 47.1719 14.1777 47.0703 14.3184C46.9688 14.459 46.8926 14.623 46.8418 14.8105C46.791 14.9941 46.7656 15.1953 46.7656 15.4141ZM51.6641 15.8945V15.7715C51.6641 15.3066 51.7305 14.8789 51.8633 14.4883C51.9961 14.0938 52.1895 13.752 52.4434 13.4629C52.6973 13.1738 53.0098 12.9492 53.3809 12.7891C53.752 12.625 54.1777 12.543 54.6582 12.543C55.1387 12.543 55.5664 12.625 55.9414 12.7891C56.3164 12.9492 56.6309 13.1738 56.8848 13.4629C57.1426 13.752 57.3379 14.0938 57.4707 14.4883C57.6035 14.8789 57.6699 15.3066 57.6699 15.7715V15.8945C57.6699 16.3555 57.6035 16.7832 57.4707 17.1777C57.3379 17.5684 57.1426 17.9102 56.8848 18.2031C56.6309 18.4922 56.3184 18.7168 55.9473 18.877C55.5762 19.0371 55.1504 19.1172 54.6699 19.1172C54.1895 19.1172 53.7617 19.0371 53.3867 18.877C53.0156 18.7168 52.7012 18.4922 52.4434 18.2031C52.1895 17.9102 51.9961 17.5684 51.8633 17.1777C51.7305 16.7832 51.6641 16.3555 51.6641 15.8945ZM53.3516 15.7715V15.8945C53.3516 16.1602 53.375 16.4082 53.4219 16.6387C53.4688 16.8691 53.543 17.0723 53.6445 17.248C53.75 17.4199 53.8867 17.5547 54.0547 17.6523C54.2227 17.75 54.4277 17.7988 54.6699 17.7988C54.9043 17.7988 55.1055 17.75 55.2734 17.6523C55.4414 17.5547 55.5762 17.4199 55.6777 17.248C55.7793 17.0723 55.8535 16.8691 55.9004 16.6387C55.9512 16.4082 55.9766 16.1602 55.9766 15.8945V15.7715C55.9766 15.5137 55.9512 15.2715 55.9004 15.0449C55.8535 14.8145 55.7773 14.6113 55.6719 14.4355C55.5703 14.2559 55.4355 14.1152 55.2676 14.0137C55.0996 13.9121 54.8965 13.8613 54.6582 13.8613C54.4199 13.8613 54.2168 13.9121 54.0488 14.0137C53.8848 14.1152 53.75 14.2559 53.6445 14.4355C53.543 14.6113 53.4688 14.8145 53.4219 15.0449C53.375 15.2715 53.3516 15.5137 53.3516 15.7715ZM60.3945 14.043V19H58.707V12.6602H60.2949L60.3945 14.043ZM62.3047 12.6191L62.2754 14.1836C62.1934 14.1719 62.0938 14.1621 61.9766 14.1543C61.8633 14.1426 61.7598 14.1367 61.666 14.1367C61.4277 14.1367 61.2207 14.168 61.0449 14.2305C60.873 14.2891 60.7285 14.377 60.6113 14.4941C60.498 14.6113 60.4121 14.7539 60.3535 14.9219C60.2988 15.0898 60.2676 15.2812 60.2598 15.4961L59.9199 15.3906C59.9199 14.9805 59.9609 14.6035 60.043 14.2598C60.125 13.9121 60.2441 13.6094 60.4004 13.3516C60.5605 13.0938 60.7559 12.8945 60.9863 12.7539C61.2168 12.6133 61.4805 12.543 61.7773 12.543C61.8711 12.543 61.9668 12.5508 62.0645 12.5664C62.1621 12.5781 62.2422 12.5957 62.3047 12.6191ZM65.9023 19.1172C65.4102 19.1172 64.9688 19.0391 64.5781 18.8828C64.1875 18.7227 63.8555 18.502 63.582 18.2207C63.3125 17.9395 63.1055 17.6133 62.9609 17.2422C62.8164 16.8672 62.7441 16.4688 62.7441 16.0469V15.8125C62.7441 15.332 62.8125 14.8926 62.9492 14.4941C63.0859 14.0957 63.2812 13.75 63.5352 13.457C63.793 13.1641 64.1055 12.9395 64.4727 12.7832C64.8398 12.623 65.2539 12.543 65.7148 12.543C66.1641 12.543 66.5625 12.6172 66.9102 12.7656C67.2578 12.9141 67.5488 13.125 67.7832 13.3984C68.0215 13.6719 68.2012 14 68.3223 14.3828C68.4434 14.7617 68.5039 15.1836 68.5039 15.6484V16.3516H63.4648V15.2266H66.8457V15.0977C66.8457 14.8633 66.8027 14.6543 66.7168 14.4707C66.6348 14.2832 66.5098 14.1348 66.3418 14.0254C66.1738 13.916 65.959 13.8613 65.6973 13.8613C65.4746 13.8613 65.2832 13.9102 65.123 14.0078C64.9629 14.1055 64.832 14.2422 64.7305 14.418C64.6328 14.5938 64.5586 14.8008 64.5078 15.0391C64.4609 15.2734 64.4375 15.5312 64.4375 15.8125V16.0469C64.4375 16.3008 64.4727 16.5352 64.543 16.75C64.6172 16.9648 64.7207 17.1504 64.8535 17.3066C64.9902 17.4629 65.1543 17.584 65.3457 17.6699C65.541 17.7559 65.7617 17.7988 66.0078 17.7988C66.3125 17.7988 66.5957 17.7402 66.8574 17.623C67.123 17.502 67.3516 17.3203 67.543 17.0781L68.3633 17.9688C68.2305 18.1602 68.0488 18.3438 67.8184 18.5195C67.5918 18.6953 67.3184 18.8398 66.998 18.9531C66.6777 19.0625 66.3125 19.1172 65.9023 19.1172Z" fill="#FCF5EB"/>
<rect x="101" y="4.625" width="20.75" height="20.75" rx="10.375" fill="white"/>
<path d="M107 19.375L115.75 10.625M115.75 10.625H109.187M115.75 10.625V17.1875" stroke="black" stroke-width="1.5" stroke-linecap="round" stroke-linejoin="round"/>
</svg>
