<svg width="124" height="29" viewBox="0 0 124 29" fill="none" xmlns="http://www.w3.org/2000/svg">
<rect width="124" height="28.75" rx="8" fill="#FCF5EB"/>
<path d="M10.5195 9.84375V18.375H8.76172V9.84375H10.5195ZM15.6289 9.84375L12.248 14.0566L10.2969 16.1543L9.98047 14.4902L11.2988 12.6855L13.4727 9.84375H15.6289ZM13.6309 18.375L11.1172 14.4316L12.418 13.3418L15.7109 18.375H13.6309ZM17.8906 13.3887V18.375H16.2031V12.0352H17.7852L17.8906 13.3887ZM17.6445 14.9824H17.1875C17.1875 14.5137 17.248 14.0918 17.3691 13.7168C17.4902 13.3379 17.6602 13.0156 17.8789 12.75C18.0977 12.4805 18.3574 12.2754 18.6582 12.1348C18.9629 11.9902 19.3027 11.918 19.6777 11.918C19.9746 11.918 20.2461 11.9609 20.4922 12.0469C20.7383 12.1328 20.9492 12.2695 21.125 12.457C21.3047 12.6445 21.4414 12.8926 21.5352 13.2012C21.6328 13.5098 21.6816 13.8867 21.6816 14.332V18.375H19.9824V14.3262C19.9824 14.0449 19.9434 13.8262 19.8652 13.6699C19.7871 13.5137 19.6719 13.4043 19.5195 13.3418C19.3711 13.2754 19.1875 13.2422 18.9688 13.2422C18.7422 13.2422 18.5449 13.2871 18.377 13.377C18.2129 13.4668 18.0762 13.5918 17.9668 13.752C17.8613 13.9082 17.7812 14.0918 17.7266 14.3027C17.6719 14.5137 17.6445 14.7402 17.6445 14.9824ZM22.6953 15.2695V15.1465C22.6953 14.6816 22.7617 14.2539 22.8945 13.8633C23.0273 13.4688 23.2207 13.127 23.4746 12.8379C23.7285 12.5488 24.041 12.3242 24.4121 12.1641C24.7832 12 25.209 11.918 25.6895 11.918C26.1699 11.918 26.5977 12 26.9727 12.1641C27.3477 12.3242 27.6621 12.5488 27.916 12.8379C28.1738 13.127 28.3691 13.4688 28.502 13.8633C28.6348 14.2539 28.7012 14.6816 28.7012 15.1465V15.2695C28.7012 15.7305 28.6348 16.1582 28.502 16.5527C28.3691 16.9434 28.1738 17.2852 27.916 17.5781C27.6621 17.8672 27.3496 18.0918 26.9785 18.252C26.6074 18.4121 26.1816 18.4922 25.7012 18.4922C25.2207 18.4922 24.793 18.4121 24.418 18.252C24.0469 18.0918 23.7324 17.8672 23.4746 17.5781C23.2207 17.2852 23.0273 16.9434 22.8945 16.5527C22.7617 16.1582 22.6953 15.7305 22.6953 15.2695ZM24.3828 15.1465V15.2695C24.3828 15.5352 24.4062 15.7832 24.4531 16.0137C24.5 16.2441 24.5742 16.4473 24.6758 16.623C24.7812 16.7949 24.918 16.9297 25.0859 17.0273C25.2539 17.125 25.459 17.1738 25.7012 17.1738C25.9355 17.1738 26.1367 17.125 26.3047 17.0273C26.4727 16.9297 26.6074 16.7949 26.709 16.623C26.8105 16.4473 26.8848 16.2441 26.9316 16.0137C26.9824 15.7832 27.0078 15.5352 27.0078 15.2695V15.1465C27.0078 14.8887 26.9824 14.6465 26.9316 14.4199C26.8848 14.1895 26.8086 13.9863 26.7031 13.8105C26.6016 13.6309 26.4668 13.4902 26.2988 13.3887C26.1309 13.2871 25.9277 13.2363 25.6895 13.2363C25.4512 13.2363 25.248 13.2871 25.0801 13.3887C24.916 13.4902 24.7812 13.6309 24.6758 13.8105C24.5742 13.9863 24.5 14.1895 24.4531 14.4199C24.4062 14.6465 24.3828 14.8887 24.3828 15.1465ZM31.5488 16.7344L32.8672 12.0352H33.9395L33.5938 13.8809L32.2754 18.375H31.3789L31.5488 16.7344ZM30.8809 12.0352L31.8242 16.7285L31.9121 18.375H30.8574L29.252 12.0352H30.8809ZM35.1465 16.6523L36.0664 12.0352H37.7012L36.0957 18.375H35.0469L35.1465 16.6523ZM34.0859 12.0352L35.3984 16.6992L35.5801 18.375H34.6777L33.3594 13.8867L33.0254 12.0352H34.0859ZM43.2266 13.3477V18.375H41.5332V12.0352H43.1211L43.2266 13.3477ZM42.9922 14.9824H42.5234C42.5234 14.541 42.5762 14.1348 42.6816 13.7637C42.791 13.3887 42.9492 13.0645 43.1562 12.791C43.3672 12.5137 43.627 12.2988 43.9355 12.1465C44.2441 11.9941 44.6016 11.918 45.0078 11.918C45.2891 11.918 45.5469 11.9609 45.7812 12.0469C46.0156 12.1289 46.2168 12.2598 46.3848 12.4395C46.5566 12.6152 46.6895 12.8457 46.7832 13.1309C46.877 13.4121 46.9238 13.75 46.9238 14.1445V18.375H45.2363V14.332C45.2363 14.043 45.1973 13.8203 45.1191 13.6641C45.041 13.5078 44.9297 13.3984 44.7852 13.3359C44.6445 13.2734 44.4746 13.2422 44.2754 13.2422C44.0566 13.2422 43.8652 13.2871 43.7012 13.377C43.541 13.4668 43.4082 13.5918 43.3027 13.752C43.1973 13.9082 43.1191 14.0918 43.0684 14.3027C43.0176 14.5137 42.9922 14.7402 42.9922 14.9824ZM46.7656 14.7891L46.1621 14.8652C46.1621 14.4512 46.2129 14.0664 46.3145 13.7109C46.4199 13.3555 46.5742 13.043 46.7773 12.7734C46.9844 12.5039 47.2402 12.2949 47.5449 12.1465C47.8496 11.9941 48.2012 11.918 48.5996 11.918C48.9043 11.918 49.1816 11.9629 49.4316 12.0527C49.6816 12.1387 49.8945 12.2773 50.0703 12.4688C50.25 12.6562 50.3867 12.9023 50.4805 13.207C50.5781 13.5117 50.627 13.8848 50.627 14.3262V18.375H48.9336V14.3262C48.9336 14.0332 48.8945 13.8105 48.8164 13.6582C48.7422 13.502 48.6328 13.3945 48.4883 13.3359C48.3477 13.2734 48.1797 13.2422 47.9844 13.2422C47.7812 13.2422 47.6035 13.2832 47.4512 13.3652C47.2988 13.4434 47.1719 13.5527 47.0703 13.6934C46.9688 13.834 46.8926 13.998 46.8418 14.1855C46.791 14.3691 46.7656 14.5703 46.7656 14.7891ZM51.6641 15.2695V15.1465C51.6641 14.6816 51.7305 14.2539 51.8633 13.8633C51.9961 13.4688 52.1895 13.127 52.4434 12.8379C52.6973 12.5488 53.0098 12.3242 53.3809 12.1641C53.752 12 54.1777 11.918 54.6582 11.918C55.1387 11.918 55.5664 12 55.9414 12.1641C56.3164 12.3242 56.6309 12.5488 56.8848 12.8379C57.1426 13.127 57.3379 13.4688 57.4707 13.8633C57.6035 14.2539 57.6699 14.6816 57.6699 15.1465V15.2695C57.6699 15.7305 57.6035 16.1582 57.4707 16.5527C57.3379 16.9434 57.1426 17.2852 56.8848 17.5781C56.6309 17.8672 56.3184 18.0918 55.9473 18.252C55.5762 18.4121 55.1504 18.4922 54.6699 18.4922C54.1895 18.4922 53.7617 18.4121 53.3867 18.252C53.0156 18.0918 52.7012 17.8672 52.4434 17.5781C52.1895 17.2852 51.9961 16.9434 51.8633 16.5527C51.7305 16.1582 51.6641 15.7305 51.6641 15.2695ZM53.3516 15.1465V15.2695C53.3516 15.5352 53.375 15.7832 53.4219 16.0137C53.4688 16.2441 53.543 16.4473 53.6445 16.623C53.75 16.7949 53.8867 16.9297 54.0547 17.0273C54.2227 17.125 54.4277 17.1738 54.6699 17.1738C54.9043 17.1738 55.1055 17.125 55.2734 17.0273C55.4414 16.9297 55.5762 16.7949 55.6777 16.623C55.7793 16.4473 55.8535 16.2441 55.9004 16.0137C55.9512 15.7832 55.9766 15.5352 55.9766 15.2695V15.1465C55.9766 14.8887 55.9512 14.6465 55.9004 14.4199C55.8535 14.1895 55.7773 13.9863 55.6719 13.8105C55.5703 13.6309 55.4355 13.4902 55.2676 13.3887C55.0996 13.2871 54.8965 13.2363 54.6582 13.2363C54.4199 13.2363 54.2168 13.2871 54.0488 13.3887C53.8848 13.4902 53.75 13.6309 53.6445 13.8105C53.543 13.9863 53.4688 14.1895 53.4219 14.4199C53.375 14.6465 53.3516 14.8887 53.3516 15.1465ZM60.3945 13.418V18.375H58.707V12.0352H60.2949L60.3945 13.418ZM62.3047 11.9941L62.2754 13.5586C62.1934 13.5469 62.0938 13.5371 61.9766 13.5293C61.8633 13.5176 61.7598 13.5117 61.666 13.5117C61.4277 13.5117 61.2207 13.543 61.0449 13.6055C60.873 13.6641 60.7285 13.752 60.6113 13.8691C60.498 13.9863 60.4121 14.1289 60.3535 14.2969C60.2988 14.4648 60.2676 14.6562 60.2598 14.8711L59.9199 14.7656C59.9199 14.3555 59.9609 13.9785 60.043 13.6348C60.125 13.2871 60.2441 12.9844 60.4004 12.7266C60.5605 12.4688 60.7559 12.2695 60.9863 12.1289C61.2168 11.9883 61.4805 11.918 61.7773 11.918C61.8711 11.918 61.9668 11.9258 62.0645 11.9414C62.1621 11.9531 62.2422 11.9707 62.3047 11.9941ZM65.9023 18.4922C65.4102 18.4922 64.9688 18.4141 64.5781 18.2578C64.1875 18.0977 63.8555 17.877 63.582 17.5957C63.3125 17.3145 63.1055 16.9883 62.9609 16.6172C62.8164 16.2422 62.7441 15.8438 62.7441 15.4219V15.1875C62.7441 14.707 62.8125 14.2676 62.9492 13.8691C63.0859 13.4707 63.2812 13.125 63.5352 12.832C63.793 12.5391 64.1055 12.3145 64.4727 12.1582C64.8398 11.998 65.2539 11.918 65.7148 11.918C66.1641 11.918 66.5625 11.9922 66.9102 12.1406C67.2578 12.2891 67.5488 12.5 67.7832 12.7734C68.0215 13.0469 68.2012 13.375 68.3223 13.7578C68.4434 14.1367 68.5039 14.5586 68.5039 15.0234V15.7266H63.4648V14.6016H66.8457V14.4727C66.8457 14.2383 66.8027 14.0293 66.7168 13.8457C66.6348 13.6582 66.5098 13.5098 66.3418 13.4004C66.1738 13.291 65.959 13.2363 65.6973 13.2363C65.4746 13.2363 65.2832 13.2852 65.123 13.3828C64.9629 13.4805 64.832 13.6172 64.7305 13.793C64.6328 13.9688 64.5586 14.1758 64.5078 14.4141C64.4609 14.6484 64.4375 14.9062 64.4375 15.1875V15.4219C64.4375 15.6758 64.4727 15.9102 64.543 16.125C64.6172 16.3398 64.7207 16.5254 64.8535 16.6816C64.9902 16.8379 65.1543 16.959 65.3457 17.0449C65.541 17.1309 65.7617 17.1738 66.0078 17.1738C66.3125 17.1738 66.5957 17.1152 66.8574 16.998C67.123 16.877 67.3516 16.6953 67.543 16.4531L68.3633 17.3438C68.2305 17.5352 68.0488 17.7188 67.8184 17.8945C67.5918 18.0703 67.3184 18.2148 66.998 18.3281C66.6777 18.4375 66.3125 18.4922 65.9023 18.4922Z" fill="#534531"/>
<rect x="99" y="4" width="20.75" height="20.75" rx="10.375" fill="#534531"/>
<path d="M105 18.75L113.75 10M113.75 10H107.187M113.75 10V16.5625" stroke="#FCF5EB" stroke-width="1.5" stroke-linecap="round" stroke-linejoin="round"/>
</svg>
