<svg width="132" height="276" viewBox="0 0 132 276" fill="none" xmlns="http://www.w3.org/2000/svg">
<g clip-path="url(#clip0_317_7)">
<path d="M51.7512 170.629C74.9995 168.995 95.561 160.171 107.248 148.277C96.1233 137.986 75.9371 132.025 52.6888 133.659C29.4405 135.294 12.3772 161.974 0.69055 173.867C11.8148 184.159 28.5036 172.26 51.7518 170.626L51.7512 170.629Z" fill="#085727"/>
<path d="M-22.9219 194.627C-22.9219 194.627 1.8242 155.925 54.3746 150.776C54.3746 150.776 16.1379 161.46 -6.8758 181.887C-9.28851 184.028 -19.6698 196.827 -21.4725 201.366" fill="#6B2A00"/>
<path d="M62.7417 125.793C41.1894 135.917 20.013 138.02 6.00795 132.828C13.1501 117.704 29.7533 102.062 51.3056 91.9385C72.8579 81.815 94.0343 79.7118 108.039 84.9044C100.897 100.028 84.294 115.67 62.7417 125.793Z" fill="#074820"/>
<path d="M-29.1251 184.614C-29.1251 184.614 -3.14828 122.658 48.8221 106.766C48.8221 106.766 12.5963 124.331 -4.29326 150.047C-7.45886 154.869 -10.2736 159.499 -12.7591 163.84C-13.4577 165.06 -11.0448 170.998 -11.6901 172.169C-21.0066 189.066 -28.0577 196.009 -28.0577 196.009" fill="#6B2A00"/>
<path d="M41.0674 137.6C59.3465 132.993 74.4466 123.624 82.0362 113.363C71.6894 107.623 54.7504 106.328 36.4732 110.938C18.1941 115.545 8.45851 137.21 0.86885 147.471C11.2157 153.211 22.7877 142.209 41.0668 137.602L41.0674 137.6Z" fill="#0C7333"/>
<path d="M-15.3845 74.7142C-18.7354 98.5254 -16.3521 120.018 -10.0125 132.632C-0.385297 121.884 7.86995 101.637 11.2209 77.8257C14.5718 54.0145 12.1885 32.5217 5.84888 19.9074C-3.77831 30.6561 -12.0336 50.9029 -15.3845 74.7142Z" fill="#074820"/>
<path d="M-18.325 180.116C-19.6348 179.948 -20.5421 178.773 -20.3498 177.494C-20.3498 177.494 1.28165 65.562 1.08937 66.841L-15.6048 178.1C-15.797 179.379 -17.0145 180.281 -18.3243 180.114L-18.325 180.116Z" fill="#6B2A00"/>
<path d="M-0.6856 83.3009C-8.77375 99.4018 -8.18007 117.801 -0.621848 132.135C14.874 130.669 29.6425 120.845 37.7306 104.744C45.8188 88.6429 45.2251 70.2442 37.6669 55.9102C22.171 57.3762 7.40255 67.1999 -0.6856 83.3009Z" fill="#085727"/>
<path d="M-24.9295 181.57C-26.109 180.969 -26.6286 179.532 -26.086 178.359C-26.086 178.359 25.8603 77.4955 25.3177 78.6683L-21.8088 180.534C-22.3514 181.707 -23.7468 182.17 -24.9289 181.568L-24.9295 181.57Z" fill="#6B2A00"/>
<path d="M-14.3733 176.783C-15.6932 177.015 -16.8706 176.173 -17.0089 174.901C-17.0089 174.901 -35.2844 46.2994 -35.1461 47.5709L-12.2314 174.057C-12.0956 175.328 -13.0527 176.549 -14.3727 176.781L-14.3733 176.783Z" fill="#6B2A00"/>
<path d="M-20.364 173.579C-20.364 173.579 9.03605 129.527 37.2496 121.191C37.2496 121.191 -1.87247 143.481 -19.8329 182.934C-37.7934 222.388 -20.3633 173.576 -20.3633 173.576L-20.364 173.579Z" fill="#6B2A00"/>
<path d="M-15.6273 182.487C-15.6273 182.487 -10.2089 129.469 -41.089 98.376C-41.089 98.376 -22.0675 124.55 -19.9673 148.914C-19.5747 153.484 -19.3573 157.783 -19.2616 161.751C-19.2353 162.866 -23.2454 166.056 -23.2379 167.118C-23.1257 182.437 -20.7844 189.979 -20.7844 189.979" fill="#6B2A00"/>
<path d="M39.6199 157.569C58.2109 156.745 74.5309 150.552 83.695 141.936C74.6168 134.131 58.3493 129.382 39.7602 130.21C21.1693 131.034 7.94541 150.509 -1.21623 159.125C7.86197 166.93 21.0309 158.396 39.6218 157.572L39.6199 157.569Z" fill="#074820"/>
<path d="M-19.7821 174.105C-19.7821 174.105 -0.604376 145.854 41.3941 142.913C41.3941 142.913 10.9495 150.193 -7.14278 164.936C-9.03873 166.482 -9.47072 170.739 -11.048 172.451C-13.6904 175.318 -17.1414 175.788 -18.5097 179.12" fill="#6B2A00"/>
</g>
<defs>
<clipPath id="clip0_317_7">
<rect width="210.232" height="230.382" fill="white" transform="translate(-71.755) rotate(14.3875)"/>
</clipPath>
</defs>
</svg>
