<svg version="1.2" xmlns="http://www.w3.org/2000/svg" viewBox="0 0 405 833" width="405" height="833"><defs><clipPath clipPathUnits="userSpaceOnUse" id="cp1"><path d="m119 394.69l186.96-394.69 277.55 131.47-186.96 394.7z"/></clipPath><clipPath clipPathUnits="userSpaceOnUse" id="cp2"><path d="m156.66 385.63l141.56-298.86 327.51 155.13-141.57 298.86z"/></clipPath></defs><style>.a{fill:#085727}.b{fill:#6b2a00}.c{fill:#074820}.d{fill:#0c7333}.e{fill:#0d8039}.f{fill:#0b6e31}</style><g style="opacity:1"><g clip-path="url(#cp1)"><g clip-path="url(#cp2)"><path class="a" d="m457.1 245.9c4.4-36.4-3.1-70.8-17.9-92.4-19.2 14.1-34.5 43.5-38.9 79.9-4.4 36.4 31.7 70.7 46.5 92.3 19.2-14.1 5.9-43.4 10.3-79.8z"/><path class="b" d="m471.8 368.4c0 0-52.3-49.8-44.6-132.5 0 0 5.1 62.3 29.8 103.9 2.5 4.4 19.2 24.2 25.7 28.4"/><path class="c" d="m391.1 215.5c9.2 36.3 6.1 69.7-6.1 89.8-21.2-15.6-40.4-45.9-49.6-82.2-9.2-36.3-6.1-69.7 6.1-89.7 21.3 15.5 40.5 45.8 49.6 82.1z"/><path class="b" d="m454.5 375c0 0-87.9-58.6-96.9-143.7 0 0 16.3 61.2 51 95 6.5 6.3 12.8 12.1 18.7 17.2 1.7 1.5 11.6-0.5 13.2 0.9 23.3 19.4 31.9 32.4 31.9 32.4"/><path class="c" d="m358.7 421c25.5-15.5 42.9-35.9 48-53.7-20-2.7-47.4 4-72.9 19.5-25.5 15.5-26.4 50-31.5 67.8 20 2.7 30.8-18.1 56.4-33.6z"/><path class="d" d="m402.9 252.5c-1.7-29.6-11.6-55.7-25.2-70.5-11.9 14.3-19 40.1-17.4 69.7 1.7 29.6 32.2 51.1 45.8 65.9 12-14.3-1.6-35.5-3.2-65.1z"/><path class="e" d="m265.1 368.2c31.3-0.3 58-9.2 72.2-22.3-16.5-12.6-44.8-20.9-76.1-20.5-31.4 0.3-58.1 9.2-72.3 22.2 16.6 12.7 44.8 21 76.2 20.6z"/><path class="c" d="m288.9 320.9c35.8 12.3 69.7 15.1 91 9-13.7-18-42.5-36.8-78.2-49.1-35.8-12.3-69.7-15.1-91.1-9.1 13.7 18.1 42.5 36.9 78.3 49.2z"/><path class="b" d="m450.8 357c-0.7 1.9-2.7 3-4.7 2.3 0 0-166.4-66.9-164.4-66.2l166.8 59.1c1.9 0.6 2.9 2.8 2.3 4.8z"/><path class="a" d="m306.6 300.8c22.4 17.3 51 21.9 75.4 14.5 2.4-24.4-8.4-50.1-30.8-67.4-22.5-17.3-51.1-21.9-75.5-14.5-2.3 24.3 8.4 50.1 30.9 67.4z"/><path class="b" d="m451.1 367.6c-1.3 1.6-3.7 2-5.3 0.8 0 0-140.3-110.3-138.6-109.2l143.2 103.3c1.6 1.2 1.9 3.5 0.7 5.1z"/><path class="b" d="m446.8 349.9c0 2.1-1.7 3.6-3.7 3.5 0 0-204-10.3-202-10.1l202.2 2.5c2 0.1 3.6 2 3.5 4.1z"/><path class="b" d="m440.1 358.2c0 0-59.3-58.6-63.7-104.7 0 0 22.7 67.1 78.3 106.6 55.6 39.6-14.6-1.9-14.6-1.9z"/><path class="f" d="m324.7 396.7c27.1-13.1 46.3-32.3 52.6-50.2-20.2-5.1-48.6-1.4-75.7 11.7-27.1 13.1-46.3 32.3-52.7 50.2 20.3 5.1 48.7 1.4 75.8-11.7z"/><path class="b" d="m455.3 353.5c0 0-80.3-24.2-137.5 14.2 0 0 46.1-21.6 84.3-17.5 7.2 0.7 13.9 1.7 20.1 2.7 1.7 0.3 5.4 7.5 7 7.8 23.7 4.4 36.1 3 36.1 3"/><path class="b" d="m446.1 359.3c0 0-66.5-4.3-100.7 40.5 0 0 71-51.6 122.3-31.7"/><path class="c" d="m433.3 260.7c4.3-28.9-0.4-56-11-72.7-14.7 11.7-26.9 35.4-31.2 64.3-4.3 29 21.8 55.3 32.4 72 14.8-11.7 5.5-34.6 9.8-63.6z"/><path class="b" d="m441.1 357.4c0 0-37.9-38-29.9-103.8 0 0 2.1 49.2 19.5 81.6 1.8 3.4 8.3 5.3 10.4 8.2 3.7 5 3.4 10.5 8.1 13.6"/></g></g></g></svg>