<svg width="42" height="42" viewBox="0 0 42 42" fill="none" xmlns="http://www.w3.org/2000/svg">
<path d="M22.625 27.5L29.125 21M29.125 21L22.625 14.5M29.125 21H12.875M40.5 21C40.5 23.5608 39.9956 26.0965 39.0157 28.4623C38.0357 30.8282 36.5993 32.9778 34.7886 34.7886C32.9778 36.5993 30.8282 38.0357 28.4623 39.0157C26.0965 39.9956 23.5608 40.5 21 40.5C18.4392 40.5 15.9035 39.9956 13.5377 39.0157C11.1718 38.0357 9.02216 36.5993 7.21142 34.7886C5.40068 32.9778 3.96432 30.8282 2.98435 28.4623C2.00438 26.0965 1.5 23.5608 1.5 21C1.5 15.8283 3.55446 10.8684 7.21142 7.21142C10.8684 3.55446 15.8283 1.5 21 1.5C26.1717 1.5 31.1316 3.55446 34.7886 7.21142C38.4455 10.8684 40.5 15.8283 40.5 21Z" stroke="#F4E4CD" stroke-width="1.5" stroke-linecap="round" stroke-linejoin="round"/>
</svg>
