<svg version="1.2" xmlns="http://www.w3.org/2000/svg" viewBox="0 0 62 38" width="62" height="38"><style>.a{fill:none;stroke:#000;stroke-linecap:round;stroke-linejoin:round;stroke-width:1.5}</style><path fill-rule="evenodd" d="m5.9 34.9q0-0.3-0.1-0.6-0.1-0.3-0.4-0.5-0.3-0.2-0.7-0.4-0.5-0.2-1.1-0.4-0.7-0.2-1.2-0.4-0.5-0.2-0.9-0.5-0.3-0.3-0.5-0.7-0.2-0.3-0.2-0.8 0-0.5 0.2-0.9 0.2-0.4 0.6-0.7 0.4-0.3 0.9-0.5 0.5-0.1 1.2-0.1 0.9 0 1.5 0.3 0.7 0.3 1 0.9 0.4 0.6 0.4 1.3h-0.7q0-0.6-0.3-1-0.3-0.4-0.8-0.7-0.4-0.2-1.1-0.2-0.7 0-1.2 0.2-0.5 0.2-0.7 0.6-0.3 0.3-0.3 0.7 0 0.3 0.1 0.6 0.1 0.3 0.4 0.5 0.3 0.2 0.7 0.4 0.5 0.2 1.1 0.3 0.7 0.2 1.2 0.5 0.5 0.2 0.9 0.5 0.4 0.3 0.6 0.7 0.1 0.4 0.1 0.9 0 0.5-0.2 0.9-0.2 0.4-0.6 0.7-0.4 0.3-0.9 0.5-0.6 0.1-1.2 0.1-0.6 0-1.1-0.1-0.6-0.2-1.1-0.5-0.4-0.3-0.7-0.8-0.3-0.5-0.3-1.1h0.7q0 0.5 0.3 0.9 0.2 0.3 0.5 0.6 0.4 0.2 0.8 0.3 0.5 0.1 0.9 0.1 0.7 0 1.2-0.2 0.5-0.2 0.7-0.6 0.3-0.3 0.3-0.8zm4.5 1.6q0.4 0 0.8-0.2 0.4-0.1 0.6-0.4 0.3-0.4 0.3-0.9h0.7q0 0.6-0.4 1.1-0.3 0.5-0.8 0.8-0.6 0.2-1.2 0.2-0.7 0-1.2-0.2-0.5-0.3-0.8-0.7-0.4-0.4-0.6-1-0.1-0.6-0.1-1.2v-0.3q0-0.7 0.1-1.2 0.2-0.6 0.6-1 0.3-0.5 0.8-0.7 0.5-0.3 1.2-0.3 0.6 0 1.2 0.3 0.5 0.3 0.9 0.8 0.3 0.5 0.3 1.2h-0.7q0-0.5-0.2-0.9-0.3-0.4-0.7-0.6-0.4-0.2-0.8-0.2-0.6 0-1 0.3-0.3 0.2-0.6 0.5-0.2 0.4-0.3 0.8-0.1 0.5-0.1 1v0.3q0 0.5 0.1 0.9 0.1 0.5 0.3 0.8 0.3 0.4 0.6 0.6 0.4 0.2 1 0.2zm4.5 0.5h-0.7v-6.3h0.7v1q0.1-0.2 0.2-0.3 0.2-0.4 0.6-0.6 0.4-0.3 1-0.3 0.1 0 0.3 0.1 0.1 0 0.2 0l-0.1 0.7q-0.1-0.1-0.2-0.1-0.1 0-0.2 0-0.5 0-0.8 0.2-0.4 0.2-0.6 0.4-0.2 0.3-0.4 0.7 0 0.1 0 0.1zm2.9-3.1v-0.1q0-0.7 0.2-1.3 0.2-0.6 0.5-1 0.4-0.5 0.9-0.7 0.5-0.2 1.2-0.2 0.6 0 1.2 0.2 0.5 0.2 0.8 0.7 0.4 0.4 0.6 1 0.2 0.6 0.2 1.3v0.1q0 0.7-0.2 1.3-0.2 0.6-0.6 1-0.3 0.5-0.8 0.7-0.6 0.2-1.2 0.2-0.6 0-1.2-0.2-0.5-0.2-0.9-0.7-0.3-0.4-0.5-1-0.2-0.6-0.2-1.3zm0.7-0.1v0.1q0 0.6 0.1 1 0.1 0.5 0.4 0.9 0.3 0.3 0.7 0.5 0.4 0.2 0.9 0.2 0.5 0 0.9-0.2 0.4-0.2 0.7-0.5 0.2-0.4 0.4-0.9 0.1-0.4 0.1-1v-0.1q0-0.6-0.1-1-0.2-0.5-0.4-0.8-0.3-0.4-0.7-0.6-0.4-0.2-0.9-0.2-0.5 0-0.9 0.2-0.4 0.2-0.7 0.6-0.3 0.3-0.4 0.8-0.1 0.4-0.1 1zm7.2-5.8v9h-0.7v-9zm2.7 0v9h-0.7v-9zm7.3 9h-2.3v-8.5h2.3q0.8 0 1.5 0.3 0.7 0.2 1.2 0.7 0.5 0.6 0.7 1.3 0.3 0.7 0.3 1.6v0.7q0 0.9-0.3 1.6-0.2 0.8-0.7 1.3-0.5 0.5-1.2 0.8-0.7 0.2-1.5 0.2zm0-0.6q0.9 0 1.6-0.4 0.6-0.4 1-1.2 0.4-0.7 0.4-1.7v-0.8q0-0.7-0.2-1.3-0.2-0.6-0.6-1-0.4-0.4-1-0.7-0.5-0.2-1.2-0.2h-1.6v7.3zm5-2.5v-0.1q0-0.7 0.2-1.3 0.2-0.6 0.5-1 0.4-0.5 0.9-0.7 0.5-0.2 1.2-0.2 0.6 0 1.2 0.2 0.5 0.2 0.9 0.7 0.3 0.4 0.5 1 0.2 0.6 0.2 1.3v0.1q0 0.7-0.2 1.3-0.2 0.6-0.5 1-0.4 0.5-0.9 0.7-0.6 0.2-1.2 0.2-0.6 0-1.2-0.2-0.5-0.2-0.9-0.7-0.3-0.4-0.5-1-0.2-0.6-0.2-1.3zm0.7-0.1v0.1q0 0.6 0.1 1 0.1 0.5 0.4 0.9 0.3 0.3 0.7 0.5 0.4 0.2 0.9 0.2 0.5 0 0.9-0.2 0.4-0.2 0.7-0.5 0.2-0.4 0.4-0.9 0.1-0.4 0.1-1v-0.1q0-0.6-0.1-1-0.2-0.5-0.4-0.8-0.3-0.4-0.7-0.6-0.4-0.2-0.9-0.2-0.5 0-0.9 0.2-0.4 0.2-0.7 0.6-0.3 0.3-0.4 0.8-0.1 0.4-0.1 1zm8.1 1.7l1.6-4.8h0.6l1.5 4.8 0.1 0.7 0.2-0.7 1.3-4.8h0.7l-1.9 6.3h-0.5l-1.7-5-0.1-0.4v0.4l-1.6 5h-0.6l-1.9-6.3h0.7l1.4 4.9 0.1 0.5zm8 1.5h-0.7v-6.4h0.7v1.1q0.1-0.2 0.3-0.4 0.3-0.3 0.8-0.6 0.4-0.2 1-0.2 0.4 0 0.8 0.2 0.4 0.1 0.6 0.4 0.3 0.3 0.4 0.7 0.2 0.4 0.2 1.1v4.1h-0.7v-4.1q0-0.7-0.2-1.1-0.2-0.3-0.5-0.5-0.4-0.2-0.8-0.2-0.5 0-0.9 0.3-0.4 0.2-0.6 0.5-0.3 0.4-0.4 0.7z"/><path fill-rule="evenodd" class="a" d="m38.5 12.5l-7.5 7.5m0 0l-7.5-7.5m7.5 7.5v-18"/></svg>