<svg width="32" height="32" viewBox="0 0 32 32" fill="none" xmlns="http://www.w3.org/2000/svg">
<g clip-path="url(#clip0_313_78)">
<path d="M16 18.5284C17.3964 18.5284 18.5284 17.3964 18.5284 16C18.5284 14.6036 17.3964 13.4716 16 13.4716C14.6036 13.4716 13.4716 14.6036 13.4716 16C13.4716 17.3964 14.6036 18.5284 16 18.5284Z" fill="#FCF5EB"/>
<path d="M19.2337 9.61053H12.7663C11.9288 9.61053 11.1255 9.94324 10.5333 10.5355C9.9411 11.1277 9.6084 11.9309 9.6084 12.7684V19.2337C9.6084 20.0712 9.9411 20.8744 10.5333 21.4667C11.1255 22.0589 11.9288 22.3916 12.7663 22.3916H19.2337C20.0712 22.3916 20.8744 22.0589 21.4666 21.4667C22.0589 20.8744 22.3916 20.0712 22.3916 19.2337V12.7663C22.391 11.9292 22.058 11.1265 21.4659 10.5347C20.8737 9.94295 20.0708 9.61053 19.2337 9.61053ZM16 20.139C15.1813 20.1394 14.3809 19.897 13.6999 19.4424C13.019 18.9879 12.4882 18.3416 12.1746 17.5854C11.861 16.8291 11.7787 15.9968 11.9382 15.1938C12.0977 14.3908 12.4917 13.6531 13.0704 13.0741C13.6492 12.495 14.3867 12.1006 15.1896 11.9407C15.9926 11.7809 16.8249 11.8627 17.5813 12.1759C18.3377 12.4891 18.9842 13.0196 19.4391 13.7003C19.894 14.381 20.1368 15.1813 20.1368 16C20.1357 17.097 19.6996 18.1488 18.9241 18.9247C18.1486 19.7006 17.097 20.1373 16 20.139ZM20.1621 12.8842C19.9595 12.8846 19.7614 12.8249 19.5929 12.7127C19.4243 12.6004 19.2928 12.4406 19.2151 12.2536C19.1374 12.0665 19.117 11.8606 19.1564 11.662C19.1958 11.4633 19.2933 11.2808 19.4365 11.1376C19.5797 10.9944 19.7622 10.8969 19.9609 10.8575C20.1596 10.8181 20.3655 10.8385 20.5525 10.9162C20.7395 10.9939 20.8993 11.1254 21.0116 11.2939C21.1238 11.4625 21.1836 11.6606 21.1831 11.8632C21.1826 12.1338 21.0748 12.3932 20.8835 12.5845C20.6921 12.7759 20.4327 12.8837 20.1621 12.8842Z" fill="#FCF5EB"/>
<path d="M16 0C12.8355 0 9.74207 0.938384 7.11088 2.69649C4.4797 4.45459 2.42894 6.95345 1.21793 9.87707C0.00693251 12.8007 -0.309921 16.0177 0.307443 19.1214C0.924806 22.2251 2.44866 25.0761 4.6863 27.3137C6.92394 29.5513 9.77487 31.0752 12.8786 31.6926C15.9823 32.3099 19.1993 31.9931 22.1229 30.7821C25.0466 29.5711 27.5454 27.5203 29.3035 24.8891C31.0616 22.2579 32 19.1645 32 16C32 11.7565 30.3143 7.68687 27.3137 4.68629C24.3131 1.68571 20.2435 0 16 0ZM24 19.2337C23.9989 20.4974 23.4964 21.7091 22.6028 22.6027C21.7091 23.4964 20.4975 23.9989 19.2337 24H12.7663C11.5027 23.9983 10.2914 23.4956 9.39787 22.6021C8.50438 21.7086 8.00168 20.4973 8.00001 19.2337V12.7663C8.00168 11.5027 8.50438 10.2914 9.39787 9.39787C10.2914 8.50437 11.5027 8.00167 12.7663 8H19.2337C20.4973 8.00167 21.7086 8.50437 22.6021 9.39787C23.4956 10.2914 23.9983 11.5027 24 12.7663V19.2337Z" fill="#FCF5EB"/>
</g>
<defs>
<clipPath id="clip0_313_78">
<rect width="32" height="32" fill="white"/>
</clipPath>
</defs>
</svg>
